<?xml version="1.0" encoding="UTF-8"?>
<svg xmlns="http://www.w3.org/2000/svg" viewBox="0 0 340.2 113.4">
  <path d="m91.8 76.1c-5-3.7-10-7.5-15.2-11.1-.7-.5-1.5-.9-2.3-1.2-5.4-1.9-10.9-3.6-16.3-5.4-.4-.1-.8-.2-1-.7-.4-1.2-1.3-2-2.4-2.7-.5-.3-.6-.5-.5-1.1 1.2-4.9 2.3-9.9 3.4-14.8.3-1.5.7-2.9.4-4.5-1.2-6-2.7-12-4-18-.4-1.7-.2-1.3-1.8-1.4-.7 0-1 .2-1.1.9-1.1 5.1-2.2 10.2-3.2 15.4-.4 1.9-.9 3.7-.7 5.7.6 5.5 1.1 11 1.7 16.4.1.5-.1.8-.6 1.1-1.2.5-2.2 1.4-2.7 2.6-.3.6-.7.8-1.2 1-4.8 1.6-9.5 3.1-14.3 4.7-1.6.5-3.2 1.1-4.7 2.1-4.9 3.5-9.8 7.1-14.6 10.7-.7.5-.9 1.3-.5 2.1.3.8 1 .8 1.7.7 5.1-1 10.1-2.1 15.2-3 3.4-.6 6.4-2 9-4.2 3-2.5 6.2-4.8 9.3-7.2.2-.2.5-.6.7-.3.5.7 1.4 1.2 1.3 2.3-.3 5.1-.4 10.3-.6 15.4-.2 5-.3 9.9-.5 14.9-.1 1.7 0 1.7 1.7 1.7.7 0 .8-.2.8-.8.1-2.4.2-4.8.3-7.2.3-7.5.5-14.9.8-22.4 0-.8.2-1.2 1.1-1 .2.1.5.1.7 0 1.1-.3 1.1.3 1.1 1.1.4 9.5.7 19 1.1 28.5.1 1.7.1 1.7 1.8 1.7.7 0 .8-.3.8-.9-.2-3.4-.3-6.9-.4-10.3-.3-6.8-.5-13.5-.8-20.2 0-1 .1-1.8.9-2.5.4-.4.6-.4 1.1-.1 3.6 2.8 7.2 5.6 10.8 8.4 1.5 1.2 3 2.1 4.9 2.4 1.1.2 2.2.5 3.2.7 4.9 1 9.8 2 14.6 3 1.1.2 1.8-.3 1.8-1.2.1-.6-.3-.9-.8-1.3zm-48.1-14.3c-4.1 3.2-8.3 6.4-12.4 9.6-.9.7-1.9 1.1-3 1.3-3.8.8-7.6 1.6-11.4 2.4-.2 0-.3 0-.5 0 0-.1 0-.1-.1-.2l7.8-5.7c2.1-1.6 4.3-2.7 6.9-3.5 4-1.2 8-2.7 12-4 .3-.1.5-.2.8-.2.1.2 0 .2-.1.3zm6.6-31.1c.6-3.1 1.3-6.2 2.1-9.3.4 1.6.7 3.2 1.1 4.7.5 2.3 1 4.6 1.5 6.9.4 1.5.4 2.9 0 4.4-1.2 4.7-2.2 9.5-3.4 14.2-.1.3-.1.6-.4.8-.5-5.2-1-10.3-1.6-15.3-.3-2.2.3-4.3.7-6.4zm1.2 33.4c-2.1 0-3.7-1.7-3.7-3.8s1.5-3.6 3.7-3.5c2.1 0 3.8 1.6 3.8 3.6s-1.7 3.7-3.8 3.7zm34.1 11c-4.2-.9-8.5-1.7-12.6-2.7-1-.3-1.8-.9-2.6-1.5-3.9-3-7.8-6.1-11.7-9.1-.1-.1-.1-.2-.3-.4 1.1.3 1.9.6 2.8.9 4.2 1.4 8.4 2.7 12.5 4.2.9.3 1.7.8 2.4 1.3 3.2 2.3 6.4 4.6 9.6 6.9l.3.3c-.1.2-.3.2-.4.1z"></path>
</svg>
