<?xml version="1.0" encoding="UTF-8"?>
<svg xmlns="http://www.w3.org/2000/svg" viewBox="0 0 340.2 113.4">
  <path d="m33.7 23.8c.9 0 1.4-.6 1.4-1.5 0-1 0-2.1 0-3.1 0-1 0-2.1 0-3.1 0-.9-.6-1.4-1.4-1.4-.9 0-1.5.5-1.5 1.4v6.2c0 1 .6 1.5 1.5 1.5z"></path>
  <path d="m42.6 44.2c-.7.7-.7 1.4-.1 2l3.6 3.6c.4.4.9.6 1.5.4.6-.3 1-.8 1.1-1.4 0-.4-.2-.7-.4-1-1.2-1.2-2.4-2.4-3.7-3.6-.6-.7-1.3-.6-2 0z"></path>
  <path d="m22.7 26.4c.3.3.5.4.9.4.7 0 1.2-.4 1.5-1 .3-.5.1-1.1-.3-1.5-1.2-1.2-2.4-2.5-3.7-3.7-.6-.6-1.4-.5-2 .1s-.7 1.4-.1 2z"></path>
  <path d="m22.8 44.1c-1.3 1.2-2.5 2.5-3.7 3.7-.4.4-.5.9-.2 1.5s.8.9 1.4 1c.3-.1.6-.1.9-.4l3.7-3.7c.6-.6.5-1.4-.1-2-.7-.6-1.4-.7-2-.1z"></path>
  <path d="m43.6 26.8c.5 0 .7-.1 1-.3 1.2-1.2 2.5-2.5 3.7-3.7.6-.6.5-1.3-.1-2-.6-.6-1.4-.7-2-.1-1.2 1.2-2.4 2.4-3.6 3.6-.4.4-.6.9-.3 1.4.2.7.7 1 1.3 1.1z"></path>
  <path d="m35.1 49.2c0-.8-.6-1.3-1.4-1.3-.9 0-1.5.5-1.5 1.3v5.2c0 .9.5 1.4 1.4 1.4s1.5-.5 1.5-1.4c0-.8 0-1.7 0-2.5.1-.9.1-1.8 0-2.7z"></path>
  <path d="m14.5 36.7h2.5 2.6s1.3-.6 1.3-1.4c0-.9-.5-1.5-1.3-1.5-1.7 0-3.5 0-5.2 0-.9 0-1.4.6-1.4 1.5.1.9.6 1.4 1.5 1.4z"></path>
  <path d="m46.4 35.3c0 .9.5 1.4 1.3 1.4h2.6 2.6c.8 0 1.3-.6 1.3-1.4 0-.9-.5-1.5-1.3-1.5-1.8 0-3.6 0-5.4 0-.7 0-1.1.6-1.1 1.5z"></path>
  <path d="m33.8 46.6c6.2 0 11.2-5.1 11.2-11.2 0-6.6-4.6-11.2-11.3-11.2-6.6 0-11.3 4.6-11.3 11.1 0 6.2 5.1 11.3 11.4 11.3zm-.1-19.7c4.6 0 8.3 3.9 8.3 8.5 0 4.5-3.9 8.2-8.4 8.2-4.6 0-8.3-3.8-8.3-8.4 0-4.5 3.9-8.3 8.4-8.3z"></path>
  <path d="m58.5 97-4.3-30c-.1-.7-.7-1.2-1.4-1.2h-37.6c-.7 0-1.3.5-1.4 1.3l-3.8 30c-.1.4.1.8.4 1.1s.7.5 1.1.5h45.8c.4 0 .8-.2 1.1-.5s.2-.7.1-1.2zm-31.3-9.3h14.2l1.1 8.1h-16.1c0-.1 0-.1 0-.2zm.3-3 .8-7.8h11.7l1.1 7.8zm-12.1-7.7h10l-.8 7.7h-10.2zm23.4-8.3.7 5.4h-11l.5-5.4zm4.1 8.3h9.8l1.1 7.8h-9.9zm9.4-2.9h-9.8l-.7-5.4h9.7zm-26.1-5.4-.5 5.4h-9.9l.7-5.4zm-12.2 18.9h.3 10l-.7 7.7v.5h-10.6zm31.4 8.2-1.1-8.1h9.8.1l1.2 8.2z"></path>
</svg>
