<?xml version="1.0" encoding="UTF-8"?>
<svg xmlns="http://www.w3.org/2000/svg" viewBox="0 0 340.2 113.4">
  <path d="m73.2 72.5c0-.6 0-1.4 0-2 0-2.5-1.1-4.3-3.4-5.5-1.2-.5-2.4-1.2-3.5-1.7-1.2-.6-2.4-1.2-3.5-1.8-.5-.3-.8-.5-1.2-.9-2.7-3.6-5.7-7.5-8.6-11.3-1-1.3-2.4-2-4-2-8 0-15.8 0-23.1 0-1.3 0-2.4.5-3.4 1.4-.6.5-1.2 1.3-1.7 2-.3.4-.5.6-.8 1-.1.1-.4.5-.7.5-.4 0-.6-.2-.8-.4-.7-.7-1.4-1.4-2.2-2-.5-.4-.9-.8-1.3-1.2-.7-.6-1.1-1.4-1.1-2.4 0-1.4 0-2.9 0-4.3 0-1 0-2 0-3 0-2 1.2-3.1 3.1-3.1h3.9 7.2c.9 0 1.2.5 1.4 1 1.2 3.4 3.4 5.4 6.9 6 1.9.4 3.9.2 6 .1 1.1-.1 2.1-.7 2.6-1.7.3-.5.7-.7 1.4-.7h5.5c1.2 0 2-.6 2.1-1.6.1-.6-.1-1.2-.5-1.5-.4-.4-.8-.6-1.4-.6-1.7 0-3.5 0-5.3 0-.3 0-.6 0-.8-.3-.3-.3-.3-.6-.3-.8 0-.6 0-1.4 0-2.1 0-.3 0-.7.3-1s.7-.4 1-.4h5.3c.9 0 1.7-.8 1.7-1.7 0-.5-.2-1.1-.5-1.4-.4-.4-.8-.5-1.4-.5-1.8 0-3.6 0-5.4 0h-.4c-.6 0-1-.2-1.3-.7-.7-1.2-1.8-1.8-3.3-1.9-1.4 0-2.6 0-3.8 0-4 .1-6.7 1.9-8.2 5.4-.3.6-.6.9-1.4.9-1.5 0-3 0-4.5 0h-1.1-.5c-.6 0-1.3 0-1.9 0-1.4 0-2.7 0-4.1 0-3.3.2-5.9 2.7-6.1 6-.1 2-.1 4.2-.1 6.3v2.1c0 1.9.8 3.4 2.4 4.9.5.5.9.8 1.4 1.3.7.6 1.4 1.4 2.2 2 .9.7.3 1.4.1 1.6-.5.6-1 1.3-1.5 1.9s-1 1.3-1.5 1.9c-1 1.3-1.5 2.6-1.5 4.3v4.2 1.9s0 1.3 0 1.8v4.3c.1 2.6 1.6 4.6 4.2 5.3.9.3 1.8.2 2.9.2.8 0 1.3.3 1.5 1.1.2.6.5 1.2.9 1.7 2 2.6 4.6 3.6 7.7 3.2 2.9-.5 5-2.2 6.1-5 .4-.9.9-1 1.4-1h9.8c.8 0 1.3.4 1.5 1.1.5 1.4 1.4 2.6 2.7 3.5 2.1 1.4 4.6 1.8 6.9 1.1s4.2-2.4 5.1-4.8c.3-.6.6-.9 1.4-.9h1.2c1.1 0 2.2 0 3.3-.1 2.4-.2 4.6-2.4 4.8-4.7.2-1.9.2-3.5.2-5zm-35.8-43.4c.9-.1 1.8-.1 2.6-.1h1.4c.3 0 .5.1.7.3.3.3.3.5.3.8v2.8.9 1.1 2.6c0 .2 0 .6-.3.9s-.5.3-.7.3h-.1c-.5 0-1.1 0-1.6 0s-1.1 0-1.7 0c-2.4-.1-4.5-2.1-4.6-4.5-.3-2.7 1.5-4.9 4-5.1zm10.9 21.7c1 0 1.7.4 2.3 1.2 1.4 1.9 2.9 3.8 4.3 5.8 1.2 1.5 2.4 3.1 3.4 4.6h-16.1v-11.6zm-30.8 9.7c2.3-2.8 4.7-5.8 7-8.7.5-.6 1.3-1 2.1-1h8.1 2.8 1.9v11.5h-23.4zm13.3 22.5c-.8.8-1.8 1.3-3 1.3-1.1 0-2.2-.5-2.9-1.3-.8-.8-1.2-1.8-1.2-2.9 0-2.3 1.9-4.2 4.2-4.2 1.1 0 2.2.5 2.9 1.3.8.8 1.3 1.8 1.3 3-.1 1-.5 2.1-1.3 2.8zm27.3 0c-.8.8-1.8 1.3-3 1.3-2.3 0-4.2-1.8-4.2-4.1 0-1.1.5-2.2 1.2-3 .8-.8 1.8-1.3 2.9-1.3h.1c2.3 0 4.1 1.8 4.2 4.2 0 1.1-.4 2.1-1.2 2.9zm11.3-8.9v1.7c0 1.7-.6 2.4-2.4 2.4-.4 0-.7 0-1.1 0-.7 0-1.4 0-2.3 0-.6 0-1.1-.3-1.4-.9-1.4-3.4-4.3-5.3-8-5-3.1.3-5.3 1.8-6.6 4.7-.3.7-.7 1.2-1.7 1.2-3.3 0-6.6 0-9.7 0-.8 0-1.2-.3-1.5-1-.9-2.3-2.8-4-5.2-4.7-2.4-.6-4.8-.3-6.9 1.2-1.3.9-2.2 2.1-2.6 3.4-.1.3-.4 1.1-1.4 1-.3 0-.5 0-.9 0-.3 0-.5 0-.9 0-1-.1-1.7-.7-1.7-1.7 0-3.7 0-7.4 0-11v-.3h46.5c.7.4 1.4.7 2.1 1.1 1.4.6 2.7 1.4 4.1 2 1.1.5 1.5 1.3 1.4 2.4.2 1.2.2 2.3.2 3.5z"></path>
</svg>
